#N canvas 844 61 467 242 12;
#X obj 56 99 loadbang;
#X obj 56 147 pd~ -ninsig 2 -noutsig 1 -fifo 30;
#N canvas 784 139 656 739 audiodelay 0;
#X obj 332 86 loadbang;
#X floatatom 392 335 5 0 0 0 - - -;
#X msg 339 114 \; pd dsp 1 \;;
#X obj 332 486 delwrite~ \$0-delay 1000;
#X obj 332 168 bng 15 250 50 0 empty empty empty 17 7 0 10 -262144
-1 -1;
#X obj 351 398 line~;
#X obj 332 425 *~;
#X obj 471 290 loadbang;
#X obj 424 358 delread4~ \$0-delay 2000;
#X obj 33 289 soundfiler;
#N canvas 0 22 450 278 (subpatch) 0;
#X array audiotable1 1.28075e+07 float 2;
#X coords 0 1 1.28075e+07 -1 200 140 1 0 0;
#X restore 32 89 graph;
#X obj 33 237 loadbang;
#X msg 371 163 stop;
#X obj 346 218 inlet;
#X obj 511 395 r lowpass;
#X obj 511 419 * 20000;
#X text 388 218 < blob amount;
#X msg 33 263 read -resize ./chime.wav audiotable1;
#X obj 332 188 tabplay~ audiotable1;
#X text 41 33 AUDIO STUFF;
#X obj 515 473 *~ 0.9;
#X obj 515 497 clip~ -1 1;
#X obj 515 521 hip~ 3;
#X obj 515 545 *~ 0.9;
#X obj 515 569 dac~ 1 2;
#X obj 434 138 sel 1;
#X obj 434 114 inlet;
#X obj 346 242 unpack f f f;
#X obj 346 460 *~ 0.99;
#X msg 351 374 \$1 800;
#X msg 471 335 600;
#X obj 424 438 lop~ 4000;
#X connect 0 0 2 0;
#X connect 0 0 4 0;
#X connect 1 0 28 1;
#X connect 1 0 29 0;
#X connect 4 0 18 0;
#X connect 5 0 6 1;
#X connect 6 0 3 0;
#X connect 7 0 30 0;
#X connect 8 0 31 0;
#X connect 11 0 17 0;
#X connect 12 0 18 0;
#X connect 13 0 27 0;
#X connect 14 0 15 0;
#X connect 15 0 31 1;
#X connect 17 0 9 0;
#X connect 18 0 6 0;
#X connect 18 1 4 0;
#X connect 20 0 21 0;
#X connect 21 0 22 0;
#X connect 22 0 23 0;
#X connect 23 0 24 0;
#X connect 25 0 4 0;
#X connect 25 1 12 0;
#X connect 26 0 25 0;
#X connect 27 2 1 0;
#X connect 28 0 3 0;
#X connect 29 0 5 0;
#X connect 30 0 8 0;
#X connect 31 0 20 0;
#X connect 31 0 28 0;
#X restore 56 190 pd audiodelay;
#X text 138 38 Movement affects Audio and Video Feedback;
#X text 334 19 Living Memory;
#X text 300 144 < Video subprocess;
#X text 335 172 < Audio stuff;
#X msg 56 123 pd~ start V2.pd;
#X obj 143 173 tgl 15 1 empty empty empty 17 7 0 10 -262144 -1 -1 1
1;
#X connect 0 0 7 0;
#X connect 1 0 2 0;
#X connect 7 0 1 0;
#X connect 8 0 2 1;
