#N canvas 989 34 175 100 12;
#N canvas 171 103 1039 803 video 0;
#X msg 759 264 0 \, destroy;
#X obj 744 155 loadbang;
#X obj 419 578 pix_texture;
#X obj 316 276 pix_video;
#X floatatom 650 310 5 0 0 0 - - -;
#X obj 496 361 pix_delay 100;
#X obj 650 285 r dt;
#X obj 316 252 gemhead 4;
#X msg 755 182 \; thresh 0.05 \; dt 10 \;;
#X obj 419 606 rectangle 4 4;
#X obj 214 513 pix_blob 4;
#X obj 281 542 > 0.05;
#X obj 319 508 r thresh;
#X obj 281 621 line;
#X obj 281 675 stdout;
#X text 578 34 to do:;
#X text 479 215 video runs thru feedback;
#X text 52 513 pix blob counts pixels;
#X text 47 675 passes data to audio delay patch;
#X text 235 279 camera in;
#X text 334 73 VIDEO STUFF;
#X text 517 81 get the image size right for a CRT with the gem window
dimensions and pix snap driving the feedback into the center;
#X text 249 743 output "blob center of gravity" to control stero panning
in audio patch;
#X text 915 738 perception is a comparison of frames \, one moment
to the last.;
#X text 919 819 no present without the past \, no experience without
memory.;
#X text 917 778 the contrast of this moment against the stream of moments
preceding it form the present.;
#X obj 496 265 t b a;
#X obj 418 464 alpha 1;
#X obj 744 303 gemwin 20;
#X msg 1054 157 \$1 \$2 \$3;
#X floatatom 1051 69 5 0 0 0 - - -;
#X floatatom 1051 92 5 0 0 0 - - -;
#X floatatom 1051 115 5 0 0 0 - - -;
#X obj 1055 134 pack f f f;
#X msg 744 240 reset \, dimen 700 700 \, create \, 1;
#X obj 496 291 pix_snap 0 0 700 700;
#X obj 496 238 gemhead -1;
#X floatatom 436 232 5 0 0 0 - - -;
#X obj 316 300 pix_crop 300 100 700 700;
#X obj 318 346 translateXYZ 0 0 -1.2;
#X msg 281 600 \$1 1000;
#X text 151 439 pix_movement filters unchanged pixels;
#X obj 414 389 pix_add;
#X obj 281 566 change;
#X obj 212 648 pack f f f;
#X obj 418 513 pix_contrast 4 5;
#X obj 499 327 pix_subtract;
#X obj 418 441 pix_movement 0.02;
#X obj 418 549 pix_motionblur 0.3;
#X connect 0 0 28 0;
#X connect 1 0 8 0;
#X connect 1 0 34 0;
#X connect 2 0 9 0;
#X connect 3 0 38 0;
#X connect 4 0 5 1;
#X connect 5 0 42 1;
#X connect 6 0 4 0;
#X connect 7 0 3 0;
#X connect 10 1 44 0;
#X connect 10 2 44 1;
#X connect 10 3 11 0;
#X connect 11 0 43 0;
#X connect 12 0 11 1;
#X connect 13 0 44 2;
#X connect 26 0 35 0;
#X connect 26 1 35 0;
#X connect 27 0 10 0;
#X connect 27 0 45 0;
#X connect 30 0 33 2;
#X connect 31 0 33 1;
#X connect 32 0 33 0;
#X connect 33 0 29 0;
#X connect 34 0 28 0;
#X connect 35 0 46 0;
#X connect 36 0 26 0;
#X connect 37 0 39 3;
#X connect 38 0 39 0;
#X connect 38 0 46 1;
#X connect 39 0 42 0;
#X connect 40 0 13 0;
#X connect 42 0 47 0;
#X connect 43 0 40 0;
#X connect 44 0 14 0;
#X connect 45 0 48 0;
#X connect 46 0 5 0;
#X connect 47 0 27 0;
#X connect 48 0 2 0;
#X restore 16 47 pd video;
#X text 15 21 video subprocess;
